<svg xmlns="http://www.w3.org/2000/svg" version="1.1" xmlns:xlink="http://www.w3.org/1999/xlink" width="517" height="517"><svg width="517" height="517" viewBox="0 0 517 517" fill="none" xmlns="http://www.w3.org/2000/svg">
<path d="M261 509.483C398.234 509.483 509.484 398.233 509.484 260.999C509.484 123.765 398.234 12.5154 261 12.5154C123.766 12.5154 12.5162 123.765 12.5162 260.999C12.5162 398.233 123.766 509.483 261 509.483Z" fill="black"></path>
<path d="M377.542 44.042L56.5418 121.202L58.2984 128.51L379.299 51.3499L377.542 44.042Z" fill="white"></path>
<path d="M258.36 85.9544H250.844V142.277H258.36V85.9544Z" fill="#E6000F"></path>
<path d="M254.404 88.5394C259.41 88.5394 263.469 84.4807 263.469 79.474C263.469 74.4674 259.41 70.4087 254.404 70.4087C249.397 70.4087 245.338 74.4674 245.338 79.474C245.338 84.4807 249.397 88.5394 254.404 88.5394Z" fill="white"></path>
<path d="M264.036 143.827H245.217C237.613 143.827 230.249 140.665 225.013 135.15L224.092 134.18L229.543 129.005L230.464 129.975C234.287 134.001 239.665 136.311 245.217 136.311H264.036C270.007 136.311 275.654 133.703 279.527 129.156L285.247 134.029C279.945 140.256 272.214 143.827 264.036 143.827Z" fill="white"></path>
<path d="M405.367 62.8099L40.2822 150.567L42.0388 157.875L407.123 70.1177L405.367 62.8099Z" fill="white"></path>
<path d="M261 5C119.841 5 5 119.841 5 261C5 402.157 119.841 516.999 261 516.999C402.158 516.999 517 402.157 517 261C517 119.841 402.158 5 261 5ZM261 20.0317C393.869 20.0317 501.968 128.129 501.968 261C501.968 269.114 501.559 277.134 500.772 285.044C443.606 231.761 345.265 184.993 298.131 185.16C247.963 185.338 201.755 225.427 176.01 235.329C150.266 245.231 119.901 240.61 88.2156 247.211C66.3196 251.773 37.2043 273.019 21.2915 285.72C20.4594 277.591 20.0317 269.345 20.0317 261C20.0317 128.129 128.129 20.0317 261 20.0317Z" fill="white"></path>
<path d="M140.023 445.388C132.939 445.388 126.635 441.706 122.668 438.021L128.335 429.664C131.876 433.346 137.331 435.827 141.085 435.827C144.769 435.827 147.603 434.055 147.603 430.796C147.603 427.467 143.989 426.192 141.865 425.414C139.74 424.634 136.056 423.359 134.427 422.649C133.223 422.084 130.744 421.162 128.619 419.109C126.493 417.125 124.794 414.292 124.794 409.688C124.794 405.012 127.06 401.33 129.893 398.991C132.656 396.655 137.118 395.096 142.786 395.096C148.452 395.096 154.97 397.787 158.298 401.117L153.411 409.12C150.578 406.287 146.185 404.163 142.502 404.163C138.819 404.163 136.127 405.58 136.127 408.555C136.127 411.53 138.889 412.663 141.085 413.514C143.21 414.363 146.824 415.638 148.381 416.276C154.615 418.542 159.006 422.581 159.006 429.664C159.006 440.218 149.515 445.388 140.023 445.388Z" fill="black"></path>
<path d="M199.733 444.539L187.478 424.139L183.582 428.46V444.539H172.177V395.661H183.582V413.514L198.67 395.661H212.271L195.058 415.141L213.474 444.539H199.733Z" fill="black"></path>
<path d="M223.811 444.539V395.661H235.287V444.539H223.811Z" fill="black"></path>
<path d="M251.292 444.539V395.661H262.697V435.046H279.627V444.539H251.292Z" fill="black"></path>
<path d="M291.877 444.539V395.661H303.351V444.539H291.877Z" fill="black"></path>
<path d="M330.763 404.799V416.77H348.755V425.908H330.763V444.539H319.357V395.661H349.887V404.799H330.763Z" fill="black"></path>
<path d="M383.317 404.728V444.539H371.843V404.728H359.233V395.661H395.927V404.728H383.317Z" fill="black"></path>
<path d="M74.9522 323.702H93.9693L100.959 354.992L107.867 323.702H126.072L132.98 354.992L139.97 323.702H158.987L143.139 379.781H124.446L116.97 348.085L109.493 379.781H90.7998L74.9522 323.702Z" fill="#E6000F"></path>
<path d="M172.577 323.702H192.895L212.4 379.781H193.058L190.863 371.898H174.609L172.415 379.781H153.072L172.577 323.702ZM187.45 357.918L182.736 342.314L178.022 357.918H187.45Z" fill="#E6000F"></path>
<path d="M215.664 323.702H235.575L251.83 354.992C251.668 353.693 251.423 348.898 251.423 344.834V323.702H269.302V379.781H250.205L233.137 348.492C233.3 349.548 233.543 355.073 233.543 358.65V379.781H215.664V323.702Z" fill="#E6000F"></path>
<path d="M275.005 351.743C275.005 331.829 289.472 322.726 305.318 322.726C317.103 322.726 324.255 327.604 328.644 332.48L316.778 342.72C314.583 340.608 310.439 338.574 305.888 338.574C298.899 338.574 293.533 343.452 293.533 351.905C293.533 359.787 298.735 364.908 306.214 364.908C308.164 364.908 310.926 364.583 312.795 363.69V359.381H304.261V345.972H330.432V370.516C324.499 376.855 315.802 380.757 305.318 380.757C289.472 380.757 275.005 371.653 275.005 351.743Z" fill="#E6000F"></path>
<path d="M337.434 323.702H377.257V338.33H355.72V344.347H376.039V358.814H355.72V365.153H378.072V379.781H337.434V323.702Z" fill="#E6000F"></path>
<path d="M385.071 323.702H404.981L421.236 354.992C421.075 353.693 420.83 348.898 420.83 344.834V323.702H438.71V379.781H419.612L402.545 348.492C402.706 349.548 402.951 355.073 402.951 358.65V379.781H385.071V323.702Z" fill="#E6000F"></path>
<path d="M150.226 281.092C150.226 262.724 163.229 251.995 180.703 251.995C198.176 251.995 211.179 262.724 211.179 281.092C211.179 299.378 198.176 310.025 180.703 310.025C163.229 310.025 150.226 299.378 150.226 281.092ZM192.649 280.928C192.649 273.21 188.017 267.844 180.703 267.844C173.469 267.844 168.755 273.21 168.755 280.928C168.755 288.814 173.469 294.177 180.703 294.177C188.017 294.177 192.649 288.814 192.649 280.928Z" fill="#E6000F"></path>
<path d="M216.882 252.972H240.126C251.992 252.972 262.638 255.817 262.638 267.193C262.638 273.696 258.412 278.086 254.673 279.549V279.71C261.175 281.499 265.4 286.294 265.4 293.607C265.4 304.824 254.999 309.049 244.515 309.049H216.882V252.972ZM244.27 270.445C244.27 267.193 242.239 266.462 238.663 266.462H235.25V274.428H238.663C242.158 274.428 244.27 273.452 244.27 270.445ZM246.871 291.089C246.871 287.838 244.839 286.619 241.264 286.619H235.25V295.559H241.264C244.596 295.559 246.871 294.257 246.871 291.089Z" fill="#E6000F"></path>
<path d="M270.694 252.972H310.517V267.6H288.98V273.616H309.299V288.082H288.98V294.421H311.332V309.049H270.694V252.972Z" fill="#E6000F"></path>
<path d="M318.332 252.972H342.712C356.366 252.972 365.876 258.824 365.876 270.851C365.876 278.817 362.786 284.018 356.527 287.757L369.125 309.049H347.996L338.731 290.358H336.698V309.049H318.332V252.972ZM347.345 271.663C347.345 268.331 344.581 266.787 341.249 266.787H336.617V276.542H341.249C344.906 276.542 347.345 274.996 347.345 271.663Z" fill="#E6000F"></path>
<path d="M162.483 132.935H154.967V189.257H162.483V132.935Z" fill="#E6000F"></path>
<path d="M158.526 135.52C163.532 135.52 167.591 131.461 167.591 126.455C167.591 121.448 163.532 117.389 158.526 117.389C153.519 117.389 149.46 121.448 149.46 126.455C149.46 131.461 153.519 135.52 158.526 135.52Z" fill="white"></path>
<path d="M168.159 190.807H149.34C141.736 190.807 134.372 187.645 129.136 182.13L128.215 181.16L133.666 175.986L134.587 176.956C138.41 180.981 143.787 183.291 149.34 183.291H168.159C174.131 183.291 179.776 180.683 183.648 176.136L189.371 181.01C184.069 187.236 176.338 190.807 168.159 190.807Z" fill="white"></path>
</svg><style>@media (prefers-color-scheme: light) { :root { filter: none; } }
@media (prefers-color-scheme: dark) { :root { filter: none; } }
</style></svg>